<svg width="16" height="16" viewBox="0 0 16 16" fill="none" xmlns="http://www.w3.org/2000/svg">
<path d="M14.1562 10.9085H11.3219L7.96952 6.04961L7.25333 5.58426L7.48191 5.17365H8.33524C9.02603 5.17365 9.56952 5.01853 9.96572 4.7083C10.3721 4.38894 10.5752 3.95552 10.5752 3.40804C10.5752 2.6872 10.3517 2.08954 9.90476 1.61506C9.45778 1.13145 8.80762 0.889649 7.95429 0.889649C7.3854 0.889649 6.86222 1.04021 6.38476 1.34132V9.86826L7.98476 10.361L7.68 10.9085H3.04762V10.4842L4.48 9.47134V1.1497L2.89524 0.684345L3.2 0.136869H4.96762C5.89206 0.136869 6.80127 0.109495 7.69524 0.0547478C8.3454 0.0182493 8.82794 0 9.14286 0C9.82349 0 10.4279 0.123182 10.9562 0.369547C11.4946 0.615911 11.906 0.948959 12.1905 1.36869C12.4851 1.78842 12.6324 2.24922 12.6324 2.75107C12.6324 3.2073 12.4749 3.64528 12.16 4.06501C11.8451 4.47562 11.4286 4.83604 10.9105 5.14628C10.4025 5.44739 9.86413 5.67551 9.29524 5.83062L10.2857 6.13174L12.6476 9.55346L14.461 10.361L14.1562 10.9085Z" fill="#4ADE80"/>
<path d="M5.53143 14.6997C5.12508 14.6997 4.74921 14.7089 4.40381 14.7271C4.06857 14.7545 3.84 14.7864 3.7181 14.8229L0 12.195L0.457143 11.6749C1.18857 12.195 1.80825 12.5418 2.31619 12.7151C2.82413 12.8976 3.44889 12.9889 4.19048 12.9889H14.7962L15.3905 11.2917L16 11.5654V16H15.5276L14.4 14.6997H5.53143Z" fill="#4ADE80"/>
</svg>
